<?xml version="1.0" encoding="UTF-8" standalone="no"?><svg xmlns="http://www.w3.org/2000/svg" xmlns:xlink="http://www.w3.org/1999/xlink" fill="#000000" height="823.9" preserveAspectRatio="xMidYMid meet" version="1" viewBox="324.0 587.8 1352.7 823.9" width="1352.7" zoomAndPan="magnify"><g fill="#18544b" id="change1_1"><path d="M1125.09,1314.44c-0.48-2.56-0.97-5.12-1.39-7.35c-5.03-3.19-9.64-3.27-14.15-0.44 c-12.33,7.73-24.59,15.57-36.9,23.34c-2.97,1.87-5.86,3.97-9.04,5.39c-10.82,4.82-21.76,9.39-33.67,14.48 c-3.38-0.33-8.19-1.58-12.79-1.04c-6.22,0.73-10.33-0.83-12.58-6.78c-0.28-0.74-1.09-1.27-1.77-2.03 c-1.96,0.59-3.98,1.19-6.43,1.92c-1.89-1.5-3.94-3.13-6.52-5.18c0.92-3.22,1.85-6.47,2.86-10c-0.78-0.85-1.48-2.03-2.53-2.66 c-3.58-2.17-7.39-2.11-11.49-1.43c-2.83,0.47-5.87-0.37-9.24-0.66c0-3.35,0-5.9,0-8.94c-5.14-2.91-11.4-4.83-12.26-12.35 c-2.44,0.65-4.26,0.77-5.69,1.58c-7.29,4.14-14.31,8.9-23.22,8.7c-5.41,3.69-11.15,6.99-16.16,11.17 c-8.08,6.76-15.75,14.02-23.44,21.23c-2.87,2.69-6.63,5.4-7.72,8.82c-1.81,5.7-5.7,9.07-10.26,11.38 c-6.33,3.21-9.79,10.14-17.19,11.91c-6.37,1.53-12.47,4.18-18.75,6.13c-1.12,0.35-2.56-0.37-3.86-0.6l-0.11,0.06 c1.44-0.92,3.09-1.64,4.27-2.82c1.5-1.51,2.6-3.4,3.64-4.81c-1.81-6.79-4.62-11.99-11.13-14.84c-3.83,1.51-7.88,3.1-11.42,4.49 c-7.66-1.71-5.21-7.41-5.48-11.64c-2.58-2.17-4.97-4.08-7.25-6.12c-4.09-3.66-8.57-6.02-14.34-5.62c-4.11,0.28-7.81-1.09-11.3-5.02 c0.14-1.48,0.47-3.58,0.5-5.68c0.03-1.63-0.31-3.27-0.56-5.53c-7.08,0.61-13.63,1.85-19.91-1.18c-1.3-0.63-3.48-0.08-5.01,0.54 c-3.86,1.56-7.68,1.62-11.69,0.83c-5.14-1.01-9.38,0.91-13.42,4.1c-6.23,4.93-12.77,9.47-19.14,14.22 c-2.94,2.19-5.96,3.86-9.75,2.43c0.02,0.04,0.29,0.45,0.29,0.45c11.92-9.76,23.85-19.52,36.03-29.49 c0.64-5.07-1.83-10.5,1.66-15.29c2.96-4.07,6.69-7.8,8.17-13.44c-5.3-0.64-8.29,2.38-11.18,4.62 c-16.73,12.91-33.28,26.06-49.77,39.26c-1.98,1.58-3.28,4-4.89,6.04l0.22,0.39c-2.05,0.32-4.62-0.03-6.04,1.09 c-4.44,3.49-8.45,7.54-14.36,12.97c8.59-0.53,12.85-5.28,18.16-7.46c3.08,1.15,2.88,3.39,0.91,4.91c-6.59,5.12-13.43,9.91-20,14.69 c-8.98-1.13-9.21-1.43-14.85,2.94c-10.44,8.12-19.51,17.67-27.47,28.25c0,0,0.3,0.21,0.3,0.21c-0.18-3.39-0.35-6.78-0.54-10.4 c-4.93-3.21-11.62,0.37-16.48-4.62c-1.27-6.4,5.05-10.44,6.65-16.97c-2-2.41-4.16-5.03-6.27-7.59c7.06,2.25,11.1-2.5,15.46-6.51 c6.47-0.87,6.47-0.87,7.23-7.19c-3.77,1.55-7.31,2.45-7.01,7.39c-5.24,2.11-10.46,4.23-15.69,6.35c-1.44,4.1-2.89,8.19-4.59,13 c-3.17,1.26-6.79,2.71-10.42,4.16c-1.4-0.66-2.72-1.01-3.7-1.79c-5.51-4.4-5.48-4.44-12.08,1.33c-0.29-1.4-0.72-2.45-0.7-3.49 c0.09-5.96-0.86-7.94-5.58-8.26c-4.68-0.31-9.43,0.38-14.91,0.68c-5.61-8.95-5.37-22.38-18.39-27.63 c-4.9,1.66-10.26,3.62-15.7,5.27c-7.25,2.2-9.93,0.93-10.41-6.61c-0.28-4.38-4.47-5.17-5.23-8.81c0.52-6.03,4.88-10.02,8.85-14.05 c18.27-18.53,35.38-38.09,52.21-57.91c2.79-3.29,6.04-6.19,9.38-9.57c-4.51-5.2-8.47-9.76-12.75-14.68 c-6.21-1.77-13.3-2.89-18.15-8.73c-0.49-0.59-1.5-1.11-2.24-1.07c-9.08,0.44-9.77-5.34-9.28-12.19c0.09-1.21-0.64-2.47-1.02-3.82 c-4.51-1.75-8.91-3.45-12.71-4.92c-4.77,1.12-9.02,3.01-13.2,2.85c-4.12-0.16-8.15-2.41-13.42-4.14c-0.77-1.07-2.31-3.19-3.83-5.32 c-1.25-1.75-2.48-3.51-3.81-5.4c3.59-8.51,7.67-16.2,14.04-22.54c9.37-9.32,18.75-18.63,28.03-28.03c4.25-4.3,9.2-8.11,11.61-14.36 c-4.29-1.81-7.98-4.22-11.94-4.76c-2.62-0.36-5.6,1.95-8.9,3.26c-2.76-1.73-5.5-4.09-8.68-5.22c-2.59-0.92-5.7-0.37-9.53-0.51 c1.28-4.31,2.24-7.57,3.2-10.83c-0.69-0.37-1.58-1.23-2.02-1.04c-3.62,1.58-7.11,3.49-10.74,5.04c-3.28,1.4-6.56,0.17-7.18-3.43 c-0.91-5.29-3.16-8.57-8.29-10.62c-1.88-0.75-2.67-4.21-3.95-6.44c-2.6-4.51-4.98-5.78-9.78-4.27c-4.14,1.3-8.07,3.27-11.96,4.89 c-9.34-3.67-11.41-12.35-13.62-19.99c-1.43-4.97-3.76-8.72-6.77-12.44c1.58,0.12,3.14,0.24,4.7,0.35c0-0.32-0.01-0.65-0.01-0.97 c-1.55,0.19-3.1,0.38-4.64,0.58c-1.94,0.63-3.89,1.27-6.98,2.27c0.2-4.08,0.34-6.97,0.5-10.19c-1.17-0.32-2.65-1.27-3.53-0.88 c-3.19,1.42-6.11,3.47-9.28,4.93c-1.81,0.83-3.93,0.99-6.57,1.6c-0.52-3.81-0.92-6.74-1.31-9.63c-0.86-0.31-1.72-0.97-2.36-0.8 c-7.76,2.12-8.35,2.04-12.07-3.38c-6.16-8.98-13.02-17.53-17.38-28.37c-9.94,1.97-19.69,4.74-30.09,1.81 c-2.54-4.93-5.13-9.94-8.1-15.69c3.45-5.53,6.34-11.58,10.5-16.56c12.16-14.55,24.04-29.31,37.64-42.68 c21.39-21.04,41.75-43.13,62.78-64.55c8.64-8.8,18.02-16.87,26.8-25.55c7.51-7.42,14.87-15.03,21.83-22.96 c2.52-2.87,3.91-6.85,5.32-10.51c0.51-1.33-0.42-3.22-0.76-5.26c-5.68,0.07-7.7,4.86-11.3,6.97c-3.73,2.19-7.14,4.92-11.07,7.68 c-2.92-1.87-5.68-4.09-8.8-5.52c-2.64-1.21-5.7-1.52-8.79-2.27c1.87-5.45,3.57-10.4,5.55-16.15c-1.74,0.14-2.84,0.05-3.82,0.35 c-1.2,0.37-2.29,1.06-3.48,1.64c-1.15-3.11-2.2-5.93-3.24-8.78c-0.01,0.01-0.02,0.04-0.03,0.07c-4.2-2.19-8.4-4.37-13.04-6.79 c-4.65,4.31-8.75,8.12-13.13,12.19c-6.24-2.25-10.53-6.05-12.86-13.09c4.3-8.98,10-17.7,17.41-25.29c2.77-2.83,5.63-5.57,8.55-8.25 c11-10.12,21.95-20.25,32.21-31.17c8.12-8.64,17.18-16.42,28.1-21.61c0.79-0.38,1.6-0.8,2.24-1.38c12.7-11.58,27.28-20.54,41.51-30 c0.32-0.22,0.44-0.75,0.65-1.14c3.54-0.41,6.26-2.03,7.84-5.33c3.9-0.07,6.59-1.94,8.14-5.49c2.86-1.1,6.02-1.72,8.52-3.37 c13.27-8.75,26.33-17.8,39.54-26.63c3.63-2.43,7.44-4.65,11.34-6.61c11.02-5.54,22.03-11.12,33.24-16.27 c10.79-4.97,21.7-9.24,33.79-10.91c9.09-1.26,17.57,0.49,26.13,1.76c5.57,0.83,10.77,4.3,12.67,10.51 c2.14,7.02,8.09,11.36,11.89,17.21c0.92,1.42,2.47,3.2,3.91,3.39c6.83,0.9,10.6,5.71,13.98,10.86c7.81-1.18,13.72-5.2,19.52-9.04 c11.86-7.86,24.58-13.91,37.66-19.33c7.91-3.28,15.76-5.86,24.16-1.27c1.84,1,4.28,1.25,6.44,1.25c6.33,0,11.33,3.4,14.33,7.99 c3.27,5,7.08,7.57,13.24,7.14c0.78,4.42,1.7,7.8,1.89,11.22c0.27,4.74,2.38,8.52,5.48,11.73c1.43,1.48,3.56,2.54,5.57,3.15 c5,1.51,10.12,2.65,15.64,4.05c0.68,5.91,5.94,9.6,6.31,15.72c0.1,1.59,2.49,3.23,4.1,4.5c6.41,5.03,6.18,9.33-1.4,13.61 c-2.79,1.57-3.86,3.3-3.6,6.24c-2.53,1.83-5.05,3.65-7.55,5.48c-0.63,0.53-1.33,0.99-1.87,1.59c-0.22,0.24-0.1,0.79-0.14,1.19 c0.62-0.22,1.64-0.3,1.77-0.68c0.24-0.72-0.03-1.61-0.09-2.42c4.17,0.58,6.66-1.23,7.52-5.33c8.54,0.4,16.23-1.62,23.74-6.11 c10.6-6.34,22.01-11.32,32.75-17.44c10.35-5.89,20.35-12.4,30.39-18.8c22.88-14.57,47.07-26.09,73.59-32.45 c8.89-2.13,17.88-2.17,26.07,0.96c6.82,2.61,13.57,3.39,20.55,4.07c8.88,0.86,14.66,6.15,15.03,15.1c0.15,3.67,0.3,7.04,2.33,10 c1.69,2.47,3.28,5.32,7.21,4.87c1.03-0.12,2.66,0.71,3.23,1.61c5.62,8.9,13.01,16.26,20.32,23.69c3.1,10.92,13.21,20.55,6.04,33.42 c-0.71,1.28-0.09,3.29-0.09,6.1c3.57-1.59,6.43-2.5,8.91-4.02c15.05-9.26,29.96-18.75,45.02-27.98 c9.41-5.77,18.8-11.63,28.55-16.76c23.05-12.13,45.29-25.9,69.87-34.96c5.38-1.98,10.83-3.75,16.28-5.53 c7.54-2.46,15.18-4.6,22.62-7.31c5.99-2.18,11.8-3.5,18.01-1c2.02,0.81,4.31,1.59,6.41,1.45c9.92-0.7,13.18,6.86,16.81,13.56 c3.13,5.77,5.39,12.01,8.15,17.99c0.92,1.99,1.82,4.95,3.41,5.51c8.26,2.88,7.91,11.05,10.61,17.03c2.51,5.55,3.2,11.83,9.65,14.78 c0.96,0.44,1.77,2.06,1.93,3.23c0.55,4.11,2.15,7.33,5.34,10.24c4.05,3.69,4.35,8.31,1.39,13.19c-1.32,2.18-2.33,4.71-2.81,7.21 c-0.68,3.56,0.02,6.48,3.43,9.17c4.36,3.45,8.32,7.51,8.03,14.31c-0.1,2.2,3.56,4.56,5.86,7.27c-0.59,4.02-1.21,8.29-1.78,12.17 c2.45,2.63,4.6,1.55,6.48,0.56c6.65-3.49,13.34-6.93,19.77-10.79c9.15-5.49,18.81-9.6,28.89-13.1c8.72-3.02,17.17-7.01,25.4-11.22 c7.34-3.76,14.71-5.74,22.94-4.41c2.11,0.34,4.36-0.2,7.1-0.36c3.19,4.82,7.87,7.89,14.22,8.96c4.61,0.78,5.16,2.19,4.21,7.63 c-0.42,2.39-0.34,3.95,1.25,5.93c3.66,4.56,6.02,9.65,5.21,15.86c-0.59,4.51,2.09,8.24,5.73,9.63c7.35,2.8,7.92,11.48,14.2,14.91 c0.66,3.87,1.32,7.73,2.08,12.18c2.32,1.22,4.95,2.6,7.29,3.83c0.39,1.27,0.93,2.13,0.86,2.94c-0.8,9.17-2.12,18.32-2.41,27.51 c-0.21,6.81,2,13.17,8.28,17.1c2.44,1.52,2.99,2.85,2.84,6.1c-0.16,3.46,2.93,7.26,6.9,8.46c5.52,1.66,7.62,5.61,8.44,10.7 c1.35,8.34,3.88,16.23,7.68,23.82c1.29,2.58,2.03,6.25,1.26,8.91c-2.05,7.15-2.74,14.71-6.9,21.29 c-4.92,7.79-9.23,15.97-14.11,24.5c1.61,1.81,3.85,3.41,4.67,5.55c0.69,1.82-0.48,4.28-0.43,6.45c0.05,2.12-0.16,5.36,1.04,6.15 c6.79,4.48,4.45,12.66,8.37,17.74c-2.88,5.08-5.37,9.62-8.03,14.05c-0.86,1.43-3.12,2.63-3.07,3.88c0.11,3.31,0.53,6.86,1.9,9.82 c5.91,12.77,12.14,25.4,18.44,37.98c0.95,1.89,2.84,3.34,4.4,4.88c9.93,9.78,17.58,20.89,20.9,34.67c0.72,2.98,1.33,6.5,3.26,8.59 c4.79,5.16,4.18,11.29,4.65,17.38c1.44,18.74-6.53,34.23-16.61,49.04c-1.47,2.16-3.37,4.28-4.05,6.7 c-4.06,14.52-12.02,26.22-24.34,34.93l0.58,0.3c-2-2.61-4.38-3.18-6.39-0.37c-1.16,1.62-1.38,3.9-2.02,5.89l0.42-0.54 c-7.53,3.91-12.81,9.07-10.29,18.55c-2.67,3.28,0.26,4.4,2.26,5.89l-0.23-0.04c0.52,4.23-0.73,8.19-3.57,11.01 c-4.78,4.75-7.64,10.59-11.22,16.08c-3.7,5.67-6.31,12.91-14.07,15.09c-1.15,0.32-2.28,1.48-2.98,2.54 c-8.19,12.29-20.48,20.63-30.16,31.5c-5.52,6.2-11.53,12.19-19.79,13.7c-4.05-1.88-4.79-4.78-4.6-8.04 c0.25-4.33,2.88-8.06,2.1-12.9c-0.57-3.55,1.56-7.53,2.52-11.42c-2.34-3.31-5.88-2.31-8.28-1.05 c-10.16,5.34-21.51,7.19-32.09,11.33c-5.88,2.3-11.43,4.63-15.95,8.94c-5.53,5.27-11.99,8.76-18.89,11.92 c-7.98,3.65-15.82,7.58-23.03,12.88c-5.14,3.77-11.68,5.63-17.71,8.39c-1.82-2.89,0.86-3.97,2.36-4.88 c16.23-9.79,32.53-19.48,48.88-29.08c6.08-3.57,12.44-6.67,18.51-10.25c4.12-2.43,7.96-5.33,11.91-8.02 c-0.39-5.78-1.57-10.84,2.09-15.74c1.73-2.32,0.92-6.54,1.38-11.09c-3.22,0.76-5.49,0.79-7.21,1.77 c-9.95,5.7-19.84,11.51-29.59,17.55c-2.96,1.83-5.67,4.25-8.04,6.82c-5.51,5.98-11.96,10.2-19.74,12.67 c-3.3,1.05-6.24,3.18-9.39,4.71c-5.3,2.58-9.4,8.09-16.82,5.58c-1.89-0.64-5.45,2.37-7.69,4.33c-3.31,2.88-5.95,6.54-9.23,9.47 c-3.42,3.07-7.47,4.86-12.12,2.55c-2.92-1.45-5.8-1.54-8.98-1c-2.98,0.51-6.11,0.39-9.16,0.29c-8.18-0.27-9.79-2.23-9.82-11.6 c-0.71-0.37-1.49-1.16-2.11-1.05c-5.92,1.1-6.35-7.82-13.19-6.6c-4.4,0.79-8.39-3.68-12.28-6.68c-3.68-2.84-7.1-5.24-7.48-10.08 c-0.29-3.66-3.42-4.92-5.32-7.19c1.64-0.38,4.01,0.75,4.67-2.81c-1.79,1.26-3.08,2.17-4.37,3.07c-2.05,0.43-4.63,0.21-6.06,1.39 c-10.26,8.41-21.46,15.31-32.64,22.42c-11.06,7.04-20.68,16.35-30.87,24.75c-0.9,0.74-1.28,2.1-2.22,3.7 c4.87-0.61,9.16-1.15,13.48-1.69c0.02,0.01-0.33-0.29-0.33-0.29c-2.23,2.03-4.19,4.5-6.74,5.98c-4.54,2.63-9.41,4.69-14.18,6.91 c-3.1,1.44-5.73,2.99-9.76,0.78c-2.37-1.3-6.62,0.77-10.01,1.41c-4.93,0.92-8.74-0.26-10.72-5.95c0.86-2.89,1.93-6.21,2.81-9.59 c0.57-2.21,0.55-4.9-1.82-5.64c-1.77-0.55-4.23,0.14-6.05,0.99c-1.94,0.9-3.41,2.78-5.23,4c-7.87,5.29-15.24,3.7-20.23-4.11 c-3.51-5.49-7.2-10.87-10.64-16.06c-6.35-1.05-6.35-1.05-11.83-7.2c-4.14-0.39-7.52,1.69-10.89,3.77 c-7.13,4.39-14.15,8.97-21.4,13.15c-4.55,2.62-9.61,4.36-14.13,7.02c-12.86,7.58-25.56,15.43-38.33,23.15 c-3.69,2.23-7.44,4.36-11.33,6.63c-1.81-4.41,1.41-5.59,3.22-6.73c11.15-7.07,22.55-13.74,33.75-20.72 c15.32-9.55,30.56-19.24,45.8-28.91c2.2-1.4,4.56-2.81,4.39-6c1.04,0.12,2.56,0.78,1.6-1.4c-0.45,0.57-0.9,1.13-1.35,1.7 c-3.21,0.73-6.48,1.27-9.63,2.23c-2.79,0.86-5.42,2.19-8.16,3.29C1124.73,1314.2,1125.09,1314.44,1125.09,1314.44z M648.36,1337.92 c0.66,0.23,1.33,0.45,1.99,0.68c-0.8-0.13-1.59-0.25-2.39-0.38c0.34-0.77,0.77-1.52,0.99-2.33c0.08-0.31-0.31-0.76-0.49-1.14 c-0.56,0.44-1.13,0.87-1.69,1.31C647.28,1336.69,647.8,1337.33,648.36,1337.92z M1600.84,1254.13c2.44,0.59,4.03-0.23,4.67-2.81 c-3.05-1.08-3.45,1.52-4.48,3.2c-0.59,1.47-1.18,2.93-1.78,4.4c0.41,0.1,0.81,0.19,1.22,0.29 C1600.6,1257.52,1600.72,1255.82,1600.84,1254.13z M770.69,1241.83c-3.97,0.7-5.53,2.65-6.51,5.7 C767.47,1246.73,769.14,1244.88,770.69,1241.83z M1466.42,1253.49c-0.64,0.34-1.51,0.54-1.82,1.06c-0.18,0.31,0.52,1.15,0.83,1.75 c0.63-0.34,1.48-0.56,1.81-1.09C1467.43,1254.92,1466.73,1254.09,1466.42,1253.49z M1436.15,754.25c0.28,0.14,0.57,0.27,0.85,0.41 c0.13-0.28,0.42-0.63,0.35-0.84c-0.08-0.21-0.52-0.28-0.8-0.42C1436.42,753.68,1436.28,753.96,1436.15,754.25z M764.27,1321.18 c0.55-0.55,1.46-1.05,1.54-1.66c0.07-0.58-0.73-1.27-1.15-1.91c-0.55,0.55-1.46,1.05-1.54,1.67 C763.04,1319.85,763.85,1320.54,764.27,1321.18z M1424.4,766.05l-0.14,0.74l0.68-0.23L1424.4,766.05z M1418.53,776.68l-1.04-0.18 l0.27,0.93L1418.53,776.68z M1594.64,1254.46c0.16-0.29,0.32-0.58,0.47-0.86c-0.45,0.15-0.91,0.3-1.36,0.45 C1594.05,1254.18,1594.35,1254.32,1594.64,1254.46z M855.12,1369.52l1,0.15l-0.25-0.93L855.12,1369.52z M1388,1333.97 c0.13-0.26,0.25-0.52,0.38-0.78c-0.38,0.15-0.76,0.29-1.15,0.44C1387.48,1333.74,1387.74,1333.85,1388,1333.97z"/><path d="M919.56,1330.92c0.68-1.51,0.97-3.43,2.09-4.48c8.34-7.81,16.92-12.42,28.72-15.62c0,1.77,0.36,3.46-0.12,4.87 c-0.37,1.08-1.64,2.26-2.76,2.62C937.93,1321.42,929.85,1327.36,919.56,1330.92z"/><path d="M1620.15,1237.33c-1.38-0.18-2.76-0.36-4.13-0.55c0,0,0.28,0.36,0.28,0.36c1.23-3.57,2.44-7.14,3.69-10.71 c0.98-2.78,2.01-5.55,3.02-8.32c0,0-0.42,0.54-0.42,0.54c2.8-1.84,5.61-3.68,8.41-5.52l-0.58-0.3c8.94,5.81,8.94,5.81,1.54,14.32 c0.19-0.35,0.38-0.7,0.58-1.04c-0.06,0.35-0.12,0.7-0.18,1.05c-0.65,1.12-1.3,2.24-1.94,3.33c-1.39-2.19-3.28-2.25-5.39-1.24 C1621.66,1230.88,1620.11,1233.63,1620.15,1237.33z"/><path d="M1265.69,1340.98c6.03-9.83,13.08-15.18,25.07-19.02l-0.3-0.29c-1.35,3.87-4.25,6.26-7.64,8.29 c-5.87,3.52-11.66,7.17-17.49,10.76L1265.69,1340.98z"/><path d="M616.44,1405.24c-3.35,1.91-6.61,4.01-10.09,5.64c-1.67,0.78-3.8-0.03-3.74-2.11 c0.04-1.44,1.33-3.83,2.43-4.07c3.59-0.77,7.35-0.74,11.05-1.02C616.21,1404.21,616.33,1404.73,616.44,1405.24z"/><path d="M915.39,1351.61c-3.5,4.74-8.17,7.99-13.66,10.15C905.08,1356.9,909.27,1353.1,915.39,1351.61z"/><path d="M1407.98,1334.18c-5.3,8.27-5.3,8.27-9.92,5.86C1401.66,1337.91,1404.82,1336.05,1407.98,1334.18z"/><path d="M1290.76,1321.96c3.07-5.3,7.78-8.64,13.68-12.42c-2.79,7.45-3.47,8-13.97,12.13 C1290.45,1321.67,1290.76,1321.96,1290.76,1321.96z"/><path d="M689.91,1354.25c0.98-5.18,6.25-6.1,9.2-9.33c-0.02-0.03-0.29-0.44-0.31-0.48c-0.16,5.94-3.52,8.86-9.18,9.58 L689.91,1354.25z"/><path d="M1373.03,1349.39c-1.15-1.68-2.23-2.8-2.64-4.12c-0.14-0.44,1.37-1.91,2.25-2.04c1.79-0.26,3.43,0.62,3.1,2.73 C1375.59,1346.94,1374.38,1347.75,1373.03,1349.39z"/><path d="M1118.03,1320.21c2.19-2.1,2.54-6.45,7.04-5.78c0.03,0.01-0.33-0.23-0.3-0.21c-2.23,2.04-4.48,4.07-6.74,6.09 C1118.02,1320.3,1118.03,1320.21,1118.03,1320.21z"/><path d="M1265.33,1340.72c-3.21,1.61-6.43,3.21-9.66,4.82c-0.02,0,0.33,0.3,0.31,0.29c2.55-2.93,5.47-5.17,9.68-4.85 C1265.69,1340.98,1265.33,1340.72,1265.33,1340.72z"/><path d="M1619.85,1236.94c2.36-0.92,4.72-1.83,7.07-2.75C1625,1236.2,1623.72,1239.91,1619.85,1236.94z"/><path d="M892.55,1368.05c-0.11,0.68-0.16,1.39-0.39,2.02c-0.07,0.19-0.69,0.17-1.05,0.25c0.1-0.7,0.13-1.43,0.35-2.09 C891.5,1368.07,892.16,1368.11,892.55,1368.05z"/><path d="M703.19,1328.12c-0.3,0.11-0.61,0.22-0.91,0.32c-0.09-0.3-0.35-0.7-0.24-0.88c0.13-0.22,0.57-0.25,0.87-0.37 C703,1327.51,703.09,1327.81,703.19,1328.12z"/><path d="M615.69,1394.36c-0.72,0.37-1.43,0.79-2.18,1.09c-0.33,0.14-0.75,0.06-1.12,0.08c0.37-0.53,0.67-1.43,1.11-1.5 c0.75-0.12,1.59,0.28,2.44,0.5C615.99,1394.57,615.69,1394.36,615.69,1394.36z"/><path d="M1112.78,1322.94c1.75-0.91,3.5-1.82,5.25-2.73c0,0-0.01,0.09,0,0.1c-1.78,0.98-3.57,1.95-5.36,2.92 C1112.66,1323.23,1112.78,1322.94,1112.78,1322.94z"/><path d="M1112.66,1323.23c-0.53-0.23-1.06-0.47-1.59-0.7c0.22,0.22,0.42,0.57,0.67,0.61c0.31,0.05,0.66-0.15,1.01-0.22 C1112.78,1322.94,1112.66,1323.23,1112.66,1323.23z"/><path d="M679.1,1336.59c0.64-0.1,1.27-0.19,1.91-0.29c-0.56,0.2-1.12,0.4-1.68,0.64 C679.32,1336.98,679.1,1336.59,679.1,1336.59z"/><path d="M925.59 1344.81L924.68 1344.38 925.64 1343.97z"/><path d="M689.62,1354.02l-0.86,0.03c0,0,1.1,0.15,1.13,0.18C689.91,1354.25,689.62,1354.02,689.62,1354.02z"/><path d="M551.05,653.17c-1.91-0.01-3.82-0.01-5.73-0.02C547.24,651.3,549.15,652.01,551.05,653.17z"/><path d="M543,655.17c0,1.13-0.01,2.26-0.01,3.39c-1.76-0.07-3.52-0.13-5.28-0.2C539.47,657.3,541.23,656.23,543,655.17 z"/><path d="M830.89,1381.03c-0.02,0.69-0.04,1.39-0.06,2.08c-0.01-0.67-0.02-1.35-0.04-2.02 C830.78,1381.08,830.89,1381.03,830.89,1381.03z"/><path d="M624.1 1398.05L624.15 1397.17 625.08 1397.61z"/><path d="M1616.3,1237.14c0,0-0.29-0.36-0.28-0.36c-0.42,1.91-0.85,3.82-1.27,5.73c0,0,0.23,0.04,0.23,0.04 c-0.7-2.02-1.4-4.03-2.09-6.05C1614.02,1236.72,1615.16,1236.93,1616.3,1237.14z"/></g></svg>